<?xml version="1.0" standalone="no"?><!DOCTYPE svg PUBLIC "-//W3C//DTD SVG 1.1//EN" "http://www.w3.org/Graphics/SVG/1.1/DTD/svg11.dtd"><svg t="1606876871049" class="icon" viewBox="0 0 1036 1024" version="1.1" xmlns="http://www.w3.org/2000/svg" p-id="5778" xmlns:xlink="http://www.w3.org/1999/xlink" width="202.34375" height="200"><defs><style type="text/css"></style></defs><path d="M284.523457 897.580247h455.111111a31.604938 31.604938 0 1 0 0-63.209877H284.523457a31.604938 31.604938 0 1 0 0 63.209877zM754.299259 225.02716L225.106173 754.346667a31.604938 31.604938 0 0 0 44.689383 44.689382l529.193086-529.193086a31.604938 31.604938 0 0 0-44.689383-44.689383zM284.523457 189.62963h455.111111a31.604938 31.604938 0 1 0 0-63.209877H284.523457a31.604938 31.604938 0 0 0 0 63.209877z" fill="#333333" p-id="5779"></path><path d="M316.128395 158.024691a158.024691 158.024691 0 1 1-316.049383 0 158.024691 158.024691 0 0 1 316.049383 0z m-63.209876 0a94.814815 94.814815 0 1 0-189.62963 0 94.814815 94.814815 0 0 0 189.62963 0zM316.128395 865.975309a158.024691 158.024691 0 1 1-316.049383 0 158.024691 158.024691 0 0 1 316.049383 0z m-63.209876 0a94.814815 94.814815 0 1 0-189.62963 0 94.814815 94.814815 0 0 0 189.62963 0zM1024.079012 158.024691a158.024691 158.024691 0 1 1-316.049382 0 158.024691 158.024691 0 0 1 316.049382 0z m-63.209876 0a94.814815 94.814815 0 1 0-189.62963 0 94.814815 94.814815 0 0 0 189.62963 0z" fill="#333333" p-id="5780"></path><path d="M1024.079012 865.975309a158.024691 158.024691 0 1 1-316.049382 0 158.024691 158.024691 0 0 1 316.049382 0z m-63.209876 0a94.814815 94.814815 0 1 0-189.62963 0 94.814815 94.814815 0 0 0 189.62963 0z" fill="#E60012" p-id="5781"></path></svg>